#N canvas 862 386 450 300 10;
#X obj -61 20 iemnet/udpreceive 9001;
#X obj -61 42 OSC/unpackOSC;
#X floatatom -61 91 5 0 0 0 - - -;
#X obj -61 64 OSC/routeOSC /heading;
#X connect 0 0 1 0;
#X connect 1 0 3 0;
#X connect 3 0 2 0;
