#N canvas 244 525 450 300 10;
#X obj -61 42 OSC/unpackOSC;
#X floatatom -61 91 5 0 0 0 - - -;
#X obj -61 64 OSC/routeOSC /heading;
#X obj -61 20 iemnet/udpreceive 7001;
#X connect 0 0 2 0;
#X connect 2 0 1 0;
#X connect 3 0 0 0;
