#N canvas 940 115 450 300 10;
#X declare -lib mrpeach;
#X obj 58 49 import mrpeach;
#X floatatom 145 149 5 0 0 0 - - -;
#X obj 145 190 packOSC;
#X msg 145 169 send /user/1 \$1;
#X obj 67 213 udpsend;
#X msg 67 104 connect localhost 8110;
#X connect 1 0 3 0;
#X connect 2 0 4 0;
#X connect 3 0 2 0;
#X connect 5 0 4 0;
